<?xml version="1.0" encoding="UTF-8" standalone="no"?>
<svg
   xmlns:dc="http://purl.org/dc/elements/1.1/"
   xmlns:cc="http://creativecommons.org/ns#"
   xmlns:rdf="http://www.w3.org/1999/02/22-rdf-syntax-ns#"
   xmlns:svg="http://www.w3.org/2000/svg"
   xmlns="http://www.w3.org/2000/svg"
   xmlns:sodipodi="http://sodipodi.sourceforge.net/DTD/sodipodi-0.dtd"
   xmlns:inkscape="http://www.inkscape.org/namespaces/inkscape"
   id="Ebene_1"
   data-name="Ebene 1"
   viewBox="0 0 523.17915 125.67759"
   version="1.1"
   sodipodi:docname="eud-template-1.svg"
   inkscape:version="0.92.4 (5da689c313, 2019-01-14)"
   width="523.17914"
   height="125.67757">
  <metadata
     id="metadata21">
    <rdf:RDF>
      <cc:Work
         rdf:about="">
        <dc:format>image/svg+xml</dc:format>
        <dc:type
           rdf:resource="http://purl.org/dc/dcmitype/StillImage" />
        <dc:title>EUD_LOGO_RGB</dc:title>
      </cc:Work>
    </rdf:RDF>
  </metadata>
  <sodipodi:namedview
     pagecolor="#ffffff"
     bordercolor="#666666"
     borderopacity="1"
     objecttolerance="10"
     gridtolerance="10"
     guidetolerance="10"
     inkscape:pageopacity="0"
     inkscape:pageshadow="2"
     inkscape:window-width="2560"
     inkscape:window-height="1016"
     id="namedview19"
     showgrid="false"
     inkscape:zoom="4.1662737"
     inkscape:cx="64.041601"
     inkscape:cy="61.746104"
     inkscape:window-x="0"
     inkscape:window-y="27"
     inkscape:window-maximized="1"
     inkscape:current-layer="Ebene_1"
     fit-margin-right="200"
     fit-margin-top="0"
     fit-margin-left="0"
     fit-margin-bottom="10" />
  <defs
     id="defs4">
    <style
       id="style2">.cls-1{fill:#007846;}.cls-2{fill:#1d1d1b;}</style>
  </defs>
  <title
     id="title6">EUD_LOGO_RGB</title>
  <path
     class="cls-1"
     d="m 7.5291294,32.288163 a 302.2,302.2 0 0 1 66.1299996,-12.28 c 6.83,-0.49 7.79,-20.46999988 1.73,-19.99999988 A 314,314 0 0 0 6.7091294,12.748163 c -5.86000004,1.78 -6.25000004,21.68 0.82,19.54"
     id="path8"
     inkscape:connector-curvature="0"
     style="fill:#007846" />
  <path
     class="cls-1"
     d="m 5.9291294,64.198163 a 183.47,183.47 0 0 1 40.9199996,-8.39 c 7.17,-0.64 7.45,-20.66 1,-20.09 a 196.06,196.06 0 0 0 -43.5699996,9 c -6.13,2 -5.72,21.9 1.62,19.51"
     id="path10"
     inkscape:connector-curvature="0"
     style="fill:#007846" />
  <path
     class="cls-1"
     d="m 5.9591294,96.158163 a 232.93,232.93 0 0 1 66.8899996,-10.4 c 7,-0.05 7.75,-20.14 1,-20.09 a 242.79,242.79 0 0 0 -69.5599996,11 c -6.12,1.88 -5.79,21.79 1.63,19.51"
     id="path12"
     inkscape:connector-curvature="0"
     style="fill:#007846" />
  <path
     class="cls-1"
     d="m 307.03913,27.358163 v 21.15 h 2.34 v -14.78 a 7.22,7.22 0 0 1 2.24,-3.45 6,6 0 0 1 4,-1.3 4.93,4.93 0 0 1 3.86,1.5 c 0.91,1 1.36,2.72 1.36,5.15 v 12.88 h 2.34 v -12.87 q 0,-4.45 -1.79,-6.56 a 6.53,6.53 0 0 0 -5.24,-2.1 7.65,7.65 0 0 0 -4.09,1.07 7.54,7.54 0 0 0 -2.75,3 l -0.21,-3.7 z m -21.19,10.26 a 10.09,10.09 0 0 1 1.85,-6.13 6.54,6.54 0 0 1 10.3,0 10,10 0 0 1 1.85,6.13 v 0.64 a 10,10 0 0 1 -1.86,6.17 6.56,6.56 0 0 1 -10.31,0 10.11,10.11 0 0 1 -1.83,-6.17 z m -2.34,0.65 a 11.38,11.38 0 0 0 2.55,7.67 9.24,9.24 0 0 0 13.59,0 11.38,11.38 0 0 0 2.55,-7.67 v -0.64 a 11.4,11.4 0 0 0 -2.56,-7.66 9.2,9.2 0 0 0 -13.58,0 11.39,11.39 0 0 0 -2.55,7.66 z m -5.16,-20.23 h -2.32 v 3.32 h 2.32 z m 0,9.33 h -2.32 v 21.14 h 2.32 z m -24.88,0 v 21.14 h 2.34 v -14.78 a 7.22,7.22 0 0 1 2.24,-3.45 6,6 0 0 1 4,-1.3 4.94,4.94 0 0 1 3.86,1.5 c 0.9,1 1.36,2.72 1.36,5.15 v 12.88 h 2.34 v -12.87 q 0,-4.45 -1.8,-6.56 a 6.5,6.5 0 0 0 -5.23,-2.1 7.62,7.62 0 0 0 -4.09,1.07 7.47,7.47 0 0 0 -2.75,3 l -0.21,-3.7 z m -8.64,-7.3 v 19.29 a 7.13,7.13 0 0 1 -2.2,5.62 8.25,8.25 0 0 1 -5.73,2 7.94,7.94 0 0 1 -5.6,-2 7.26,7.26 0 0 1 -2.19,-5.62 v -19.29 h -2.34 v 19.29 a 9,9 0 0 0 2.79,7.1 10.65,10.65 0 0 0 7.3,2.47 11,11 0 0 0 7.42,-2.46 q 2.83,-2.46 2.84,-7.11 v -19.29 z m -35.31,24 a 2.18,2.18 0 0 1 -0.7,-1.7 2.92,2.92 0 0 1 0.94,-2.19 3.77,3.77 0 0 1 2.75,-0.91 h 3.18 v 3 a 3.88,3.88 0 0 1 -1.58,1.72 4.92,4.92 0 0 1 -2.67,0.74 2.74,2.74 0 0 1 -1.92,-0.65 m 12.83,4.46 a 14.56,14.56 0 0 1 -0.71,-2.6 16.44,16.44 0 0 1 -0.22,-2.79 v -8.79 a 6.65,6.65 0 0 0 -2.37,-5.48 9.43,9.43 0 0 0 -6.2,-1.9 10.09,10.09 0 0 0 -6.46,1.95 5.34,5.34 0 0 0 -2.33,4.62 v 0.11 h 5.51 a 2.38,2.38 0 0 1 0.75,-1.86 3.72,3.72 0 0 1 4.5,0.16 3.27,3.27 0 0 1 0.8,2.37 v 1.68 h -3.18 q -4.59,0 -7,1.71 a 5.56,5.56 0 0 0 -2.4,4.81 6.12,6.12 0 0 0 1.8,4.66 7.13,7.13 0 0 0 5.12,1.71 5.77,5.77 0 0 0 3.43,-1 8,8 0 0 0 2.36,-2.54 11.06,11.06 0 0 0 0.32,1.64 11.47,11.47 0 0 0 0.54,1.53 z m -27.32,-10 a 8.52,8.52 0 0 1 -1,4.4 3.27,3.27 0 0 1 -3,1.62 4.73,4.73 0 0 1 -2.24,-0.47 3.46,3.46 0 0 1 -1.44,-1.37 v -9.31 a 3.72,3.72 0 0 1 1.44,-1.5 4.22,4.22 0 0 1 2.2,-0.53 3.24,3.24 0 0 1 3,1.86 10.16,10.16 0 0 1 1,4.85 z m 5.7,-0.38 a 13.64,13.64 0 0 0 -2.17,-8.07 7,7 0 0 0 -6.09,-3.07 6,6 0 0 0 -3.08,0.76 6.79,6.79 0 0 0 -2.25,2.13 l -0.33,-2.5 h -5.14 v 29.22 h 5.68 v -10.13 a 6.15,6.15 0 0 0 2.21,1.8 6.77,6.77 0 0 0 3,0.62 7.16,7.16 0 0 0 6,-2.85 12.14,12.14 0 0 0 2.17,-7.54 z m -36.88,-0.42 a 9.16,9.16 0 0 1 1,-4.58 3.46,3.46 0 0 1 3.26,-1.8 3.51,3.51 0 0 1 3.27,1.77 9,9 0 0 1 1,4.59 v 0.41 a 9.14,9.14 0 0 1 -1,4.62 3.92,3.92 0 0 1 -6.52,0 9.16,9.16 0 0 1 -1,-4.63 z m -5.69,0.42 a 11.28,11.28 0 0 0 2.69,7.76 10.44,10.44 0 0 0 14.65,0 11.32,11.32 0 0 0 2.64,-7.76 v -0.41 a 11.29,11.29 0 0 0 -2.65,-7.76 9.31,9.31 0 0 0 -7.35,-3 9.19,9.19 0 0 0 -7.3,3 11.33,11.33 0 0 0 -2.64,7.75 z m -1.4,-10.94 c -0.25,-0.07 -0.5,-0.12 -0.74,-0.17 a 4.74,4.74 0 0 0 -0.79,-0.07 4.27,4.27 0 0 0 -2.72,0.93 6.7,6.7 0 0 0 -1.93,2.59 l -0.24,-3.14 h -5.29 v 21.15 h 5.68 v -14.28 a 3.31,3.31 0 0 1 1.25,-1.48 3.73,3.73 0 0 1 2.09,-0.53 l 2.09,0.06 z m -20.91,21.29 h 4.86 v -21.15 h -5.7 v 15.42 a 4,4 0 0 1 -1.6,1.3 5.63,5.63 0 0 1 -2.35,0.44 2.71,2.71 0 0 1 -2.3,-1 5.46,5.46 0 0 1 -0.78,-3.31 v -12.85 h -5.69 v 12.77 c 0,3 0.63,5.22 1.89,6.65 a 7.31,7.31 0 0 0 8.68,1.24 7.09,7.09 0 0 0 2.48,-2.56 z m -18,-16.9 h -11.79 v -7.15 h 13.73 v -4.39 h -19.43 v 28.44 h 19.49 v -4.4 h -13.79 v -8.1 h 11.79 z"
     id="path16"
     inkscape:connector-curvature="0"
     style="fill:#007846" />
  <text
     xml:space="preserve"
     style="font-style:normal;font-variant:normal;font-weight:300;font-stretch:normal;font-size:29.33333397px;font-family:Roboto;-inkscape-font-specification:'Roboto Light';text-align:start;letter-spacing:1.33000004px;text-anchor:start"
     x="97.809296"
     y="85.391113"
     id="text_line1"
     class="text_line"><tspan
       sodipodi:role="line"
       id="tspan5140"
       x="97.809296"
       y="85.391113"
       style="font-style:normal;font-variant:normal;font-weight:300;font-stretch:normal;font-size:29.33333397px;font-family:Roboto;-inkscape-font-specification:'Roboto Light';text-align:start;letter-spacing:1.33000004px;text-anchor:start"
       dx="0">Zeile 1</tspan></text>
  <text
     id="text_line2"
     y="115.39111"
     x="97.809296"
     style="font-style:normal;font-variant:normal;font-weight:300;font-stretch:normal;font-size:29.33333397px;font-family:Roboto;-inkscape-font-specification:'Roboto Light';text-align:start;letter-spacing:1.33000004px;text-anchor:start"
     xml:space="preserve"
     class="text_line"><tspan
       dx="0"
       style="font-style:normal;font-variant:normal;font-weight:300;font-stretch:normal;font-size:29.33333397px;font-family:Roboto;-inkscape-font-specification:'Roboto Light';text-align:start;letter-spacing:1.33000004px;text-anchor:start"
       y="115.39111"
       x="97.809296"
       id="tspan1374"
       sodipodi:role="line">Zeile 2</tspan></text>
</svg>
